<svg width="3332" height="824" viewBox="0 0 3332 824" fill="none" xmlns="http://www.w3.org/2000/svg">
<g filter="url(#filter0_ii_411_3121)">
<path d="M1100.6 294.237C1102.5 290.886 1103.63 286.926 1103.63 282.813C1103.63 270.094 1093.4 259.812 1080.75 259.812C1078.47 259.812 1076.28 260.117 1074.23 260.802C1074.53 258.746 1074.68 256.689 1074.68 254.557C1074.68 236.659 1064.45 221.122 1049.6 213.582C1051.65 209.164 1052.78 204.137 1052.78 198.958C1052.78 179.689 1037.25 164 1018 164C1003.98 164 991.93 172.302 986.398 184.335C981.623 179.537 974.954 176.491 967.603 176.491C955.478 176.491 945.247 184.716 942.065 195.912C938.806 195.303 935.396 194.922 931.91 194.922C902.733 194.922 879.089 218.684 879.089 248.007C879.089 251.891 879.544 255.699 880.302 259.355C878.862 259.05 877.346 258.898 875.83 258.898C862.947 258.898 852.489 269.409 852.489 282.356C852.489 285.403 853.096 288.297 854.081 290.962C853.55 290.886 853.02 290.886 852.489 290.886C845.063 290.886 839 296.903 839 304.443C839 311.907 844.987 318 852.489 318C859.916 318 1084.54 318 1091.51 318C1098.94 318 1105 311.983 1105 304.443C1105.07 300.33 1103.33 296.751 1100.6 294.237Z" fill="#E7F7FF"/>
</g>
<g filter="url(#filter1_ii_411_3121)">
<path d="M2409.03 176.751C2411.6 172.203 2413.15 166.828 2413.15 161.246C2413.15 143.985 2399.26 130.031 2382.09 130.031C2379 130.031 2376.02 130.444 2373.24 131.374C2373.65 128.584 2373.86 125.793 2373.86 122.899C2373.86 98.6083 2359.97 77.5223 2339.81 67.2893C2342.59 61.2943 2344.13 54.4723 2344.13 47.4436C2344.13 21.2928 2323.05 0 2296.93 0C2277.9 0 2261.55 11.2666 2254.04 27.5979C2247.56 21.0861 2238.51 16.9515 2228.53 16.9515C2212.08 16.9515 2198.19 28.1147 2193.87 43.3091C2189.45 42.4822 2184.82 41.9654 2180.09 41.9654C2140.5 41.9654 2108.41 74.2146 2108.41 114.009C2108.41 119.281 2109.02 124.449 2110.05 129.41C2108.1 128.997 2106.04 128.79 2103.98 128.79C2086.5 128.79 2072.31 143.054 2072.31 160.626C2072.31 164.761 2073.13 168.688 2074.47 172.306C2073.75 172.203 2073.03 172.203 2072.31 172.203C2062.23 172.203 2054 180.368 2054 190.601C2054 200.731 2062.12 209 2072.31 209C2082.39 209 2387.23 209 2396.69 209C2406.77 209 2415 200.834 2415 190.601C2415.1 185.02 2412.73 180.162 2409.03 176.751Z" fill="#E7F7FF"/>
</g>
<g filter="url(#filter2_ii_411_3121)">
<path d="M355.032 176.751C357.603 172.203 359.146 166.828 359.146 161.246C359.146 143.985 345.261 130.031 328.085 130.031C325 130.031 322.017 130.444 319.24 131.374C319.652 128.584 319.858 125.793 319.858 122.899C319.858 98.6083 305.973 77.5223 285.815 67.2893C288.592 61.2943 290.134 54.4723 290.134 47.4436C290.134 21.2928 269.051 0 242.927 0C223.9 0 207.547 11.2666 200.04 27.5979C193.56 21.0861 184.509 16.9515 174.533 16.9515C158.078 16.9515 144.193 28.1147 139.873 43.3091C135.451 42.4822 130.823 41.9654 126.092 41.9654C86.4953 41.9654 54.4067 74.2146 54.4067 114.009C54.4067 119.281 55.0237 124.449 56.0522 129.41C54.0981 128.997 52.0411 128.79 49.9842 128.79C32.5 128.79 18.3069 143.054 18.3069 160.626C18.3069 164.761 19.1297 168.688 20.4667 172.306C19.7468 172.203 19.0269 172.203 18.3069 172.203C8.22783 172.203 0 180.368 0 190.601C0 200.731 8.12499 209 18.3069 209C28.3861 209 333.228 209 342.69 209C352.769 209 360.997 200.834 360.997 190.601C361.1 185.02 358.734 180.162 355.032 176.751Z" fill="#E7F7FF"/>
</g>
<g filter="url(#filter3_ii_411_3121)">
<path fill-rule="evenodd" clip-rule="evenodd" d="M1350.25 650.505C1353.72 648.334 1357.9 647.15 1362.29 647.15C1374.84 647.15 1384.94 656.919 1384.84 668.957C1384.84 680.995 1374.74 690.763 1362.29 690.763H1361.78C1362.09 692.835 1362.29 694.907 1362.29 697.078C1362.29 718.095 1344.64 735.067 1323.02 735.067C1322.66 735.067 1322.3 735.042 1321.94 735.018C1321.59 734.993 1321.23 734.968 1320.87 734.968C1319.65 758.551 1299.45 777.397 1274.66 777.397C1264.25 777.397 1254.56 773.944 1246.81 768.319C1238.04 790.915 1215.59 806.999 1189.17 806.999C1166.46 806.999 1146.65 795.157 1135.96 777.48C1133.51 778.391 1130.87 778.889 1128.1 778.889C1123.45 778.889 1119.12 777.472 1115.53 775.047C1106.63 781.312 1095.68 784.995 1083.79 784.995C1053.9 784.995 1029.72 761.61 1029.72 732.699V732.304C1025.54 734.672 1020.64 736.054 1015.44 736.054C1000.04 736.054 987.488 723.917 987.488 709.017C987.488 706.551 987.896 704.084 988.508 701.814H987.488C971.472 701.814 958.516 689.283 958.516 673.792C958.516 658.3 971.472 645.769 987.488 645.769C995.955 645.769 1003.61 649.321 1008.91 654.945C1014.52 650.209 1021.56 646.953 1029.42 646.065C1029.01 643.203 1028.7 640.243 1028.7 637.283C1028.7 607.879 1053.39 584 1083.79 584C1097.05 584 1109.19 588.539 1118.68 596.038C1130.72 588.44 1145.1 584 1160.61 584C1186.62 584 1209.57 596.433 1223.45 615.476C1231.71 611.53 1240.89 609.359 1250.69 609.359C1276.39 609.359 1298.43 624.653 1307.61 646.262C1311.18 638.664 1319.04 633.435 1328.22 633.435C1339.03 633.435 1348.01 640.736 1350.25 650.505Z" fill="#ECF9FF"/>
</g>
<circle cx="995.993" cy="626.164" r="13.1176" fill="#D2F1FC"/>
<g filter="url(#filter4_ii_411_3121)">
<path fill-rule="evenodd" clip-rule="evenodd" d="M2298.31 785.926C2296.36 787.147 2294.01 787.813 2291.54 787.813C2284.48 787.813 2278.8 782.317 2278.86 775.544C2278.86 768.771 2284.54 763.275 2291.54 763.275L2291.83 763.275C2291.66 762.11 2291.54 760.944 2291.54 759.722C2291.54 747.897 2301.47 738.349 2313.64 738.349C2313.84 738.349 2314.04 738.363 2314.24 738.376C2314.44 738.39 2314.64 738.404 2314.85 738.404C2315.53 725.136 2326.9 714.532 2340.85 714.532C2346.7 714.532 2352.15 716.475 2356.52 719.64C2361.45 706.927 2374.08 697.878 2388.94 697.878C2401.72 697.878 2412.87 704.539 2418.88 714.484C2420.26 713.972 2421.75 713.692 2423.3 713.692C2425.92 713.692 2428.36 714.489 2430.38 715.854C2435.39 712.33 2441.54 710.258 2448.24 710.258C2465.05 710.258 2478.66 723.415 2478.66 739.681L2478.66 739.903C2481.01 738.571 2483.76 737.794 2486.69 737.794C2495.36 737.794 2502.42 744.622 2502.42 753.005C2502.42 754.393 2502.19 755.781 2501.84 757.058L2502.42 757.058C2511.43 757.058 2518.72 764.108 2518.72 772.824C2518.72 781.54 2511.43 788.591 2502.42 788.591C2497.65 788.591 2493.35 786.592 2490.36 783.428C2487.21 786.092 2483.25 787.925 2478.83 788.424C2479.06 790.034 2479.23 791.7 2479.23 793.365C2479.23 809.909 2465.34 823.344 2448.24 823.344C2440.77 823.344 2433.94 820.79 2428.61 816.571C2421.83 820.846 2413.74 823.344 2405.02 823.344C2390.38 823.344 2377.47 816.349 2369.66 805.634C2365.01 807.855 2359.84 809.076 2354.33 809.076C2339.87 809.076 2327.47 800.471 2322.31 788.313C2320.3 792.588 2315.88 795.53 2310.71 795.53C2304.63 795.53 2299.58 791.422 2298.31 785.926Z" fill="#ECF9FF"/>
</g>
<circle cx="2497.64" cy="799.62" r="7.38036" transform="rotate(-180 2497.64 799.62)" fill="#D2F1FC"/>
<g filter="url(#filter5_ii_411_3121)">
<path fill-rule="evenodd" clip-rule="evenodd" d="M168.456 582.047C166.504 583.268 164.151 583.935 161.683 583.935C154.623 583.935 148.941 578.438 148.998 571.666C148.998 564.893 154.68 559.397 161.683 559.397L161.97 559.397C161.798 558.231 161.683 557.065 161.683 555.843C161.683 544.019 171.612 534.47 183.781 534.47C183.981 534.47 184.182 534.484 184.383 534.498C184.584 534.511 184.785 534.525 184.986 534.525C185.675 521.257 197.039 510.653 210.987 510.653C216.841 510.653 222.294 512.597 226.656 515.761C231.592 503.048 244.219 493.999 259.085 493.999C271.865 493.999 283.009 500.661 289.025 510.605C290.4 510.093 291.888 509.813 293.442 509.813C296.063 509.813 298.498 510.61 300.518 511.976C305.527 508.451 311.684 506.379 318.376 506.379C335.193 506.379 348.796 519.536 348.796 535.802L348.796 536.024C351.15 534.692 353.905 533.915 356.832 533.915C365.499 533.915 372.559 540.743 372.559 549.126C372.559 550.514 372.329 551.902 371.985 553.179L372.559 553.179C381.57 553.179 388.859 560.229 388.859 568.945C388.859 577.661 381.57 584.712 372.559 584.712C367.795 584.712 363.49 582.713 360.505 579.549C357.349 582.214 353.388 584.046 348.969 584.545C349.198 586.155 349.37 587.821 349.37 589.486C349.37 606.03 335.48 619.465 318.376 619.465C310.914 619.465 304.084 616.911 298.746 612.692C291.974 616.967 283.881 619.465 275.156 619.465C260.52 619.465 247.606 612.47 239.8 601.755C235.151 603.976 229.985 605.197 224.475 605.197C210.011 605.197 197.613 596.592 192.447 584.434C190.439 588.709 186.019 591.651 180.853 591.651C174.769 591.651 169.718 587.543 168.456 582.047Z" fill="#ECF9FF"/>
</g>
<circle cx="367.776" cy="595.741" r="7.38036" transform="rotate(-180 367.776 595.741)" fill="#D2F1FC"/>
<g filter="url(#filter6_ii_411_3121)">
<path fill-rule="evenodd" clip-rule="evenodd" d="M2990.46 88.049C2988.5 89.2704 2986.15 89.9365 2983.68 89.9365C2976.62 89.9365 2970.94 84.4404 2971 77.6675C2971 70.8945 2976.68 65.3985 2983.68 65.3985L2983.97 65.3985C2983.8 64.2326 2983.68 63.0668 2983.68 61.8454C2983.68 50.0205 2993.61 40.4718 3005.78 40.4718C3005.98 40.4718 3006.18 40.4857 3006.38 40.4995C3006.58 40.5134 3006.78 40.5273 3006.99 40.5273C3007.67 27.2589 3019.04 16.6554 3032.99 16.6554C3038.84 16.6554 3044.29 18.5985 3048.66 21.7629C3053.59 9.04971 3066.22 0.000612966 3081.09 0.000614265C3093.86 0.000615382 3105.01 6.66247 3111.03 16.6073C3112.4 16.095 3113.89 15.815 3115.44 15.815C3118.06 15.815 3120.5 16.6123 3122.52 17.9775C3127.53 14.4526 3133.68 12.3807 3140.38 12.3807C3157.19 12.3807 3170.8 25.538 3170.8 41.8042L3170.8 42.0262C3173.15 40.6939 3175.9 39.9166 3178.83 39.9166C3187.5 39.9166 3194.56 46.7451 3194.56 55.128C3194.56 56.5159 3194.33 57.9038 3193.98 59.1807L3194.56 59.1807C3203.57 59.1807 3210.86 66.2312 3210.86 74.9472C3210.86 83.6632 3203.57 90.7138 3194.56 90.7138C3189.79 90.7138 3185.49 88.7152 3182.51 85.5508C3179.35 88.2155 3175.39 90.0476 3170.97 90.5472C3171.2 92.1572 3171.37 93.8227 3171.37 95.4881C3171.37 112.032 3157.48 125.467 3140.38 125.467C3132.91 125.467 3126.08 122.913 3120.75 118.694C3113.97 122.969 3105.88 125.467 3097.16 125.467C3082.52 125.467 3069.61 118.472 3061.8 107.757C3057.15 109.978 3051.98 111.199 3046.47 111.199C3032.01 111.199 3019.61 102.594 3014.45 90.4362C3012.44 94.7109 3008.02 97.6532 3002.85 97.6532C2996.77 97.6532 2991.72 93.5451 2990.46 88.049Z" fill="#ECF9FF"/>
</g>
<circle cx="3189.78" cy="101.743" r="7.38036" transform="rotate(-180 3189.78 101.743)" fill="#D2F1FC"/>
<g filter="url(#filter7_ii_411_3121)">
<path d="M3326.03 587.218C3328.6 582.67 3330.15 577.295 3330.15 571.713C3330.15 554.451 3316.26 540.497 3299.09 540.497C3296 540.497 3293.02 540.911 3290.24 541.841C3290.65 539.05 3290.86 536.26 3290.86 533.365C3290.86 509.075 3276.97 487.989 3256.81 477.756C3259.59 471.761 3261.13 464.939 3261.13 457.91C3261.13 431.76 3240.05 410.467 3213.93 410.467C3194.9 410.467 3178.55 421.733 3171.04 438.065C3164.56 431.553 3155.51 427.418 3145.53 427.418C3129.08 427.418 3115.19 438.582 3110.87 453.776C3106.45 452.949 3101.82 452.432 3097.09 452.432C3057.5 452.432 3025.41 484.681 3025.41 524.476C3025.41 529.748 3026.02 534.916 3027.05 539.877C3025.1 539.464 3023.04 539.257 3020.98 539.257C3003.5 539.257 2989.31 553.521 2989.31 571.093C2989.31 575.227 2990.13 579.155 2991.47 582.773C2990.75 582.67 2990.03 582.67 2989.31 582.67C2979.23 582.67 2971 590.835 2971 601.068C2971 611.198 2979.12 619.467 2989.31 619.467C2999.39 619.467 3304.23 619.467 3313.69 619.467C3323.77 619.467 3332 611.301 3332 601.068C3332.1 595.487 3329.73 590.629 3326.03 587.218Z" fill="#E7F7FF"/>
</g>
<defs>
<filter id="filter0_ii_411_3121" x="839" y="154.948" width="266" height="163.052" filterUnits="userSpaceOnUse" color-interpolation-filters="sRGB">
<feFlood flood-opacity="0" result="BackgroundImageFix"/>
<feBlend mode="normal" in="SourceGraphic" in2="BackgroundImageFix" result="shape"/>
<feColorMatrix in="SourceAlpha" type="matrix" values="0 0 0 0 0 0 0 0 0 0 0 0 0 0 0 0 0 0 127 0" result="hardAlpha"/>
<feOffset dy="-8"/>
<feGaussianBlur stdDeviation="20"/>
<feComposite in2="hardAlpha" operator="arithmetic" k2="-1" k3="1"/>
<feColorMatrix type="matrix" values="0 0 0 0 0.14902 0 0 0 0 0.647059 0 0 0 0 0.901961 0 0 0 1 0"/>
<feBlend mode="normal" in2="shape" result="effect1_innerShadow_411_3121"/>
<feColorMatrix in="SourceAlpha" type="matrix" values="0 0 0 0 0 0 0 0 0 0 0 0 0 0 0 0 0 0 127 0" result="hardAlpha"/>
<feOffset dy="-9.05249"/>
<feGaussianBlur stdDeviation="15"/>
<feComposite in2="hardAlpha" operator="arithmetic" k2="-1" k3="1"/>
<feColorMatrix type="matrix" values="0 0 0 0 0.820833 0 0 0 0 0.9355 0 0 0 0 1 0 0 0 1 0"/>
<feBlend mode="normal" in2="effect1_innerShadow_411_3121" result="effect2_innerShadow_411_3121"/>
</filter>
<filter id="filter1_ii_411_3121" x="2054" y="-9.05249" width="361" height="218.052" filterUnits="userSpaceOnUse" color-interpolation-filters="sRGB">
<feFlood flood-opacity="0" result="BackgroundImageFix"/>
<feBlend mode="normal" in="SourceGraphic" in2="BackgroundImageFix" result="shape"/>
<feColorMatrix in="SourceAlpha" type="matrix" values="0 0 0 0 0 0 0 0 0 0 0 0 0 0 0 0 0 0 127 0" result="hardAlpha"/>
<feOffset dy="-8"/>
<feGaussianBlur stdDeviation="20"/>
<feComposite in2="hardAlpha" operator="arithmetic" k2="-1" k3="1"/>
<feColorMatrix type="matrix" values="0 0 0 0 0.14902 0 0 0 0 0.647059 0 0 0 0 0.901961 0 0 0 1 0"/>
<feBlend mode="normal" in2="shape" result="effect1_innerShadow_411_3121"/>
<feColorMatrix in="SourceAlpha" type="matrix" values="0 0 0 0 0 0 0 0 0 0 0 0 0 0 0 0 0 0 127 0" result="hardAlpha"/>
<feOffset dy="-9.05249"/>
<feGaussianBlur stdDeviation="15"/>
<feComposite in2="hardAlpha" operator="arithmetic" k2="-1" k3="1"/>
<feColorMatrix type="matrix" values="0 0 0 0 0.820833 0 0 0 0 0.9355 0 0 0 0 1 0 0 0 1 0"/>
<feBlend mode="normal" in2="effect1_innerShadow_411_3121" result="effect2_innerShadow_411_3121"/>
</filter>
<filter id="filter2_ii_411_3121" x="0" y="-9.05249" width="361" height="218.052" filterUnits="userSpaceOnUse" color-interpolation-filters="sRGB">
<feFlood flood-opacity="0" result="BackgroundImageFix"/>
<feBlend mode="normal" in="SourceGraphic" in2="BackgroundImageFix" result="shape"/>
<feColorMatrix in="SourceAlpha" type="matrix" values="0 0 0 0 0 0 0 0 0 0 0 0 0 0 0 0 0 0 127 0" result="hardAlpha"/>
<feOffset dy="-8"/>
<feGaussianBlur stdDeviation="20"/>
<feComposite in2="hardAlpha" operator="arithmetic" k2="-1" k3="1"/>
<feColorMatrix type="matrix" values="0 0 0 0 0.14902 0 0 0 0 0.647059 0 0 0 0 0.901961 0 0 0 1 0"/>
<feBlend mode="normal" in2="shape" result="effect1_innerShadow_411_3121"/>
<feColorMatrix in="SourceAlpha" type="matrix" values="0 0 0 0 0 0 0 0 0 0 0 0 0 0 0 0 0 0 127 0" result="hardAlpha"/>
<feOffset dy="-9.05249"/>
<feGaussianBlur stdDeviation="15"/>
<feComposite in2="hardAlpha" operator="arithmetic" k2="-1" k3="1"/>
<feColorMatrix type="matrix" values="0 0 0 0 0.820833 0 0 0 0 0.9355 0 0 0 0 1 0 0 0 1 0"/>
<feBlend mode="normal" in2="effect1_innerShadow_411_3121" result="effect2_innerShadow_411_3121"/>
</filter>
<filter id="filter3_ii_411_3121" x="958.516" y="554.527" width="426.321" height="252.472" filterUnits="userSpaceOnUse" color-interpolation-filters="sRGB">
<feFlood flood-opacity="0" result="BackgroundImageFix"/>
<feBlend mode="normal" in="SourceGraphic" in2="BackgroundImageFix" result="shape"/>
<feColorMatrix in="SourceAlpha" type="matrix" values="0 0 0 0 0 0 0 0 0 0 0 0 0 0 0 0 0 0 127 0" result="hardAlpha"/>
<feOffset dy="-29.4731"/>
<feGaussianBlur stdDeviation="32.558"/>
<feComposite in2="hardAlpha" operator="arithmetic" k2="-1" k3="1"/>
<feColorMatrix type="matrix" values="0 0 0 0 0.14902 0 0 0 0 0.647059 0 0 0 0 0.901961 0 0 0 1 0"/>
<feBlend mode="normal" in2="shape" result="effect1_innerShadow_411_3121"/>
<feColorMatrix in="SourceAlpha" type="matrix" values="0 0 0 0 0 0 0 0 0 0 0 0 0 0 0 0 0 0 127 0" result="hardAlpha"/>
<feOffset dy="-14.7366"/>
<feGaussianBlur stdDeviation="24.4185"/>
<feComposite in2="hardAlpha" operator="arithmetic" k2="-1" k3="1"/>
<feColorMatrix type="matrix" values="0 0 0 0 0.820833 0 0 0 0 0.9355 0 0 0 0 1 0 0 0 1 0"/>
<feBlend mode="normal" in2="effect1_innerShadow_411_3121" result="effect2_innerShadow_411_3121"/>
</filter>
<filter id="filter4_ii_411_3121" x="2278.86" y="668.405" width="239.861" height="154.939" filterUnits="userSpaceOnUse" color-interpolation-filters="sRGB">
<feFlood flood-opacity="0" result="BackgroundImageFix"/>
<feBlend mode="normal" in="SourceGraphic" in2="BackgroundImageFix" result="shape"/>
<feColorMatrix in="SourceAlpha" type="matrix" values="0 0 0 0 0 0 0 0 0 0 0 0 0 0 0 0 0 0 127 0" result="hardAlpha"/>
<feOffset dy="-29.4731"/>
<feGaussianBlur stdDeviation="32.558"/>
<feComposite in2="hardAlpha" operator="arithmetic" k2="-1" k3="1"/>
<feColorMatrix type="matrix" values="0 0 0 0 0.14902 0 0 0 0 0.647059 0 0 0 0 0.901961 0 0 0 1 0"/>
<feBlend mode="normal" in2="shape" result="effect1_innerShadow_411_3121"/>
<feColorMatrix in="SourceAlpha" type="matrix" values="0 0 0 0 0 0 0 0 0 0 0 0 0 0 0 0 0 0 127 0" result="hardAlpha"/>
<feOffset dy="-14.7366"/>
<feGaussianBlur stdDeviation="24.4185"/>
<feComposite in2="hardAlpha" operator="arithmetic" k2="-1" k3="1"/>
<feColorMatrix type="matrix" values="0 0 0 0 0.820833 0 0 0 0 0.9355 0 0 0 0 1 0 0 0 1 0"/>
<feBlend mode="normal" in2="effect1_innerShadow_411_3121" result="effect2_innerShadow_411_3121"/>
</filter>
<filter id="filter5_ii_411_3121" x="148.998" y="464.526" width="239.862" height="154.939" filterUnits="userSpaceOnUse" color-interpolation-filters="sRGB">
<feFlood flood-opacity="0" result="BackgroundImageFix"/>
<feBlend mode="normal" in="SourceGraphic" in2="BackgroundImageFix" result="shape"/>
<feColorMatrix in="SourceAlpha" type="matrix" values="0 0 0 0 0 0 0 0 0 0 0 0 0 0 0 0 0 0 127 0" result="hardAlpha"/>
<feOffset dy="-29.4731"/>
<feGaussianBlur stdDeviation="32.558"/>
<feComposite in2="hardAlpha" operator="arithmetic" k2="-1" k3="1"/>
<feColorMatrix type="matrix" values="0 0 0 0 0.14902 0 0 0 0 0.647059 0 0 0 0 0.901961 0 0 0 1 0"/>
<feBlend mode="normal" in2="shape" result="effect1_innerShadow_411_3121"/>
<feColorMatrix in="SourceAlpha" type="matrix" values="0 0 0 0 0 0 0 0 0 0 0 0 0 0 0 0 0 0 127 0" result="hardAlpha"/>
<feOffset dy="-14.7366"/>
<feGaussianBlur stdDeviation="24.4185"/>
<feComposite in2="hardAlpha" operator="arithmetic" k2="-1" k3="1"/>
<feColorMatrix type="matrix" values="0 0 0 0 0.820833 0 0 0 0 0.9355 0 0 0 0 1 0 0 0 1 0"/>
<feBlend mode="normal" in2="effect1_innerShadow_411_3121" result="effect2_innerShadow_411_3121"/>
</filter>
<filter id="filter6_ii_411_3121" x="2971" y="-29.4724" width="239.861" height="154.939" filterUnits="userSpaceOnUse" color-interpolation-filters="sRGB">
<feFlood flood-opacity="0" result="BackgroundImageFix"/>
<feBlend mode="normal" in="SourceGraphic" in2="BackgroundImageFix" result="shape"/>
<feColorMatrix in="SourceAlpha" type="matrix" values="0 0 0 0 0 0 0 0 0 0 0 0 0 0 0 0 0 0 127 0" result="hardAlpha"/>
<feOffset dy="-29.4731"/>
<feGaussianBlur stdDeviation="32.558"/>
<feComposite in2="hardAlpha" operator="arithmetic" k2="-1" k3="1"/>
<feColorMatrix type="matrix" values="0 0 0 0 0.14902 0 0 0 0 0.647059 0 0 0 0 0.901961 0 0 0 1 0"/>
<feBlend mode="normal" in2="shape" result="effect1_innerShadow_411_3121"/>
<feColorMatrix in="SourceAlpha" type="matrix" values="0 0 0 0 0 0 0 0 0 0 0 0 0 0 0 0 0 0 127 0" result="hardAlpha"/>
<feOffset dy="-14.7366"/>
<feGaussianBlur stdDeviation="24.4185"/>
<feComposite in2="hardAlpha" operator="arithmetic" k2="-1" k3="1"/>
<feColorMatrix type="matrix" values="0 0 0 0 0.820833 0 0 0 0 0.9355 0 0 0 0 1 0 0 0 1 0"/>
<feBlend mode="normal" in2="effect1_innerShadow_411_3121" result="effect2_innerShadow_411_3121"/>
</filter>
<filter id="filter7_ii_411_3121" x="2971" y="401.414" width="361" height="218.052" filterUnits="userSpaceOnUse" color-interpolation-filters="sRGB">
<feFlood flood-opacity="0" result="BackgroundImageFix"/>
<feBlend mode="normal" in="SourceGraphic" in2="BackgroundImageFix" result="shape"/>
<feColorMatrix in="SourceAlpha" type="matrix" values="0 0 0 0 0 0 0 0 0 0 0 0 0 0 0 0 0 0 127 0" result="hardAlpha"/>
<feOffset dy="-8"/>
<feGaussianBlur stdDeviation="20"/>
<feComposite in2="hardAlpha" operator="arithmetic" k2="-1" k3="1"/>
<feColorMatrix type="matrix" values="0 0 0 0 0.14902 0 0 0 0 0.647059 0 0 0 0 0.901961 0 0 0 1 0"/>
<feBlend mode="normal" in2="shape" result="effect1_innerShadow_411_3121"/>
<feColorMatrix in="SourceAlpha" type="matrix" values="0 0 0 0 0 0 0 0 0 0 0 0 0 0 0 0 0 0 127 0" result="hardAlpha"/>
<feOffset dy="-9.05249"/>
<feGaussianBlur stdDeviation="15"/>
<feComposite in2="hardAlpha" operator="arithmetic" k2="-1" k3="1"/>
<feColorMatrix type="matrix" values="0 0 0 0 0.820833 0 0 0 0 0.9355 0 0 0 0 1 0 0 0 1 0"/>
<feBlend mode="normal" in2="effect1_innerShadow_411_3121" result="effect2_innerShadow_411_3121"/>
</filter>
</defs>
</svg>
