<svg width="1257" height="555" viewBox="0 0 1257 555" fill="none" xmlns="http://www.w3.org/2000/svg">
<g clip-path="url(#clip0_411_3150)">
<g filter="url(#filter0_ii_411_3150)">
<path fill-rule="evenodd" clip-rule="evenodd" d="M602.804 487.3C604.228 486.408 605.944 485.922 607.745 485.922C612.896 485.922 617.042 489.932 617 494.874C617 499.815 612.854 503.825 607.745 503.825H607.536C607.661 504.676 607.745 505.526 607.745 506.417C607.745 515.045 600.501 522.011 591.623 522.011C591.476 522.011 591.33 522.001 591.183 521.991C591.037 521.981 590.89 521.971 590.743 521.971C590.241 531.651 581.95 539.387 571.774 539.387C567.502 539.387 563.524 537.97 560.342 535.661C556.74 544.936 547.527 551.538 536.682 551.538C527.357 551.538 519.226 546.677 514.837 539.42C513.833 539.794 512.747 539.999 511.614 539.999C509.702 539.999 507.926 539.418 506.453 538.423C502.798 540.994 498.306 542.506 493.424 542.506C481.154 542.506 471.229 532.907 471.229 521.039V520.877C469.513 521.849 467.502 522.416 465.367 522.416C459.044 522.416 453.893 517.434 453.893 511.318C453.893 510.306 454.06 509.293 454.312 508.361H453.893C447.318 508.361 442 503.217 442 496.858C442 490.499 447.318 485.355 453.893 485.355C457.368 485.355 460.509 486.813 462.687 489.122C464.99 487.178 467.879 485.841 471.104 485.477C470.936 484.302 470.811 483.087 470.811 481.872C470.811 469.802 480.945 460 493.424 460C498.868 460 503.851 461.863 507.745 464.941C512.687 461.823 518.591 460 524.956 460C535.635 460 545.057 465.103 550.752 472.921C554.144 471.301 557.913 470.409 561.933 470.409C572.486 470.409 581.531 476.688 585.3 485.558C586.765 482.439 589.99 480.292 593.759 480.292C598.197 480.292 601.882 483.29 602.804 487.3Z" fill="#ECF9FF"/>
</g>
<circle cx="457.377" cy="477.308" r="5.38462" fill="#D2F1FC"/>
<g filter="url(#filter1_ii_411_3150)">
<path fill-rule="evenodd" clip-rule="evenodd" d="M754.663 540.734C753.693 541.341 752.524 541.672 751.299 541.672C747.792 541.672 744.969 538.942 744.998 535.578C744.998 532.213 747.82 529.483 751.299 529.483L751.441 529.483C751.356 528.904 751.299 528.325 751.299 527.719C751.299 521.845 756.231 517.102 762.275 517.102C762.375 517.102 762.474 517.109 762.574 517.116C762.674 517.123 762.774 517.13 762.874 517.13C763.216 510.539 768.861 505.272 775.788 505.272C778.696 505.272 781.405 506.237 783.572 507.809C786.024 501.494 792.296 496.999 799.68 496.999C806.028 496.999 811.564 500.309 814.552 505.249C815.235 504.994 815.975 504.855 816.747 504.855C818.048 504.855 819.258 505.251 820.261 505.928C822.749 504.178 825.807 503.149 829.13 503.149C837.484 503.149 844.241 509.684 844.241 517.764L844.241 517.874C845.41 517.212 846.778 516.826 848.232 516.826C852.537 516.826 856.044 520.218 856.044 524.382C856.044 525.071 855.93 525.761 855.759 526.395L856.044 526.395C860.52 526.395 864.141 529.897 864.141 534.226C864.141 538.556 860.52 542.058 856.044 542.058C853.677 542.058 851.539 541.065 850.057 539.493C848.489 540.817 846.522 541.727 844.326 541.975C844.44 542.775 844.526 543.602 844.526 544.429C844.526 552.647 837.626 559.32 829.13 559.32C825.424 559.32 822.032 558.052 819.38 555.956C816.016 558.079 811.996 559.32 807.663 559.32C800.393 559.32 793.978 555.846 790.1 550.524C787.791 551.627 785.225 552.233 782.488 552.233C775.304 552.233 769.146 547.959 766.58 541.92C765.582 544.043 763.387 545.505 760.821 545.505C757.799 545.505 755.29 543.464 754.663 540.734Z" fill="#ECF9FF"/>
</g>
<circle cx="853.67" cy="547.537" r="3.66594" transform="rotate(-180 853.67 547.537)" fill="#D2F1FC"/>
<g filter="url(#filter2_ii_411_3150)">
<path fill-rule="evenodd" clip-rule="evenodd" d="M94.6627 57.7343C93.6933 58.341 92.5244 58.6719 91.2985 58.6719C87.7918 58.6719 84.9693 55.9419 84.9978 52.5777C84.9978 49.2134 87.8203 46.4834 91.2985 46.4834L91.441 46.4834C91.3555 45.9044 91.2985 45.3253 91.2985 44.7186C91.2985 38.845 96.2307 34.102 102.275 34.102C102.375 34.102 102.474 34.1089 102.574 34.1158C102.674 34.1227 102.774 34.1295 102.874 34.1295C103.216 27.539 108.861 22.272 115.788 22.272C118.696 22.272 121.405 23.2372 123.572 24.809C126.024 18.4942 132.296 13.9993 139.68 13.9993C146.028 13.9993 151.564 17.3087 154.552 22.2488C155.235 21.9941 155.975 21.8549 156.747 21.8549C158.048 21.8549 159.258 22.2506 160.261 22.9283C162.749 21.1777 165.807 20.1487 169.13 20.1487C177.484 20.1487 184.241 26.6841 184.241 34.7638L184.241 34.8741C185.41 34.2123 186.778 33.8262 188.232 33.8262C192.537 33.8262 196.044 37.218 196.044 41.382C196.044 42.0714 195.93 42.7607 195.759 43.395L196.044 43.395C200.52 43.395 204.141 46.8971 204.141 51.2265C204.141 55.5559 200.52 59.0579 196.044 59.0579C193.677 59.0579 191.539 58.0652 190.057 56.4934C188.489 57.817 186.522 58.727 184.326 58.9752C184.44 59.7749 184.526 60.6022 184.526 61.4295C184.526 69.647 177.626 76.3203 169.13 76.3203C165.424 76.3203 162.032 75.0518 159.38 72.9561C156.016 75.0794 151.996 76.3203 147.663 76.3203C140.393 76.3203 133.978 72.8458 130.1 67.5237C127.791 68.6267 125.225 69.2334 122.488 69.2334C115.304 69.2334 109.146 64.9591 106.58 58.9201C105.582 61.0434 103.387 62.5049 100.821 62.5049C97.7987 62.5049 95.2899 60.4643 94.6627 57.7343Z" fill="#ECF9FF"/>
</g>
<circle cx="193.67" cy="64.5372" r="3.66594" transform="rotate(-180 193.67 64.5372)" fill="#D2F1FC"/>
<g filter="url(#filter3_ii_411_3150)">
<path d="M512.082 132.662C512.908 131.204 513.404 129.481 513.404 127.691C513.404 122.158 508.943 117.684 503.424 117.684C502.432 117.684 501.474 117.817 500.581 118.115C500.714 117.221 500.78 116.326 500.78 115.398C500.78 107.611 496.318 100.852 489.841 97.5712C490.733 95.6494 491.229 93.4624 491.229 91.2092C491.229 82.8259 484.454 76 476.06 76C469.946 76 464.691 79.6118 462.279 84.8472C460.197 82.7596 457.288 81.4342 454.083 81.4342C448.795 81.4342 444.333 85.0129 442.945 89.8838C441.524 89.6187 440.037 89.453 438.517 89.453C425.793 89.453 415.482 99.7913 415.482 112.548C415.482 114.238 415.681 115.895 416.011 117.486C415.383 117.353 414.722 117.287 414.061 117.287C408.443 117.287 403.883 121.86 403.883 127.493C403.883 128.818 404.147 130.077 404.577 131.237C404.345 131.204 404.114 131.204 403.883 131.204C400.644 131.204 398 133.821 398 137.102C398 140.349 400.611 143 403.883 143C407.121 143 505.076 143 508.116 143C511.355 143 513.999 140.382 513.999 137.102C514.032 135.313 513.272 133.755 512.082 132.662Z" fill="#E7F7FF"/>
</g>
<g filter="url(#filter4_ii_411_3150)">
<path d="M172.082 471.662C172.908 470.204 173.404 468.481 173.404 466.691C173.404 461.158 168.943 456.684 163.424 456.684C162.432 456.684 161.474 456.817 160.581 457.115C160.714 456.221 160.78 455.326 160.78 454.398C160.78 446.611 156.318 439.852 149.841 436.571C150.733 434.649 151.229 432.462 151.229 430.209C151.229 421.826 144.454 415 136.06 415C129.946 415 124.691 418.612 122.279 423.847C120.197 421.76 117.288 420.434 114.083 420.434C108.795 420.434 104.333 424.013 102.945 428.884C101.524 428.619 100.037 428.453 98.517 428.453C85.7935 428.453 75.4825 438.791 75.4825 451.548C75.4825 453.238 75.6807 454.895 76.0112 456.486C75.3833 456.353 74.7224 456.287 74.0614 456.287C68.4432 456.287 63.8826 460.86 63.8826 466.493C63.8826 467.818 64.1469 469.077 64.5766 470.237C64.3452 470.204 64.1139 470.204 63.8826 470.204C60.6438 470.204 58 472.821 58 476.102C58 479.349 60.6108 482 63.8826 482C67.1213 482 165.076 482 168.116 482C171.355 482 173.999 479.382 173.999 476.102C174.032 474.313 173.272 472.755 172.082 471.662Z" fill="#E7F7FF"/>
</g>
<g filter="url(#filter5_ii_411_3150)">
<path d="M1255.08 70.6617C1255.91 69.2038 1256.4 67.4807 1256.4 65.6914C1256.4 60.1578 1251.94 55.6845 1246.42 55.6845C1245.43 55.6845 1244.47 55.817 1243.58 56.1152C1243.71 55.2206 1243.78 54.3259 1243.78 53.3981C1243.78 45.6113 1239.32 38.8516 1232.84 35.5712C1233.73 33.6494 1234.23 31.4624 1234.23 29.2092C1234.23 20.8259 1227.45 14 1219.06 14C1212.95 14 1207.69 17.6118 1205.28 22.8472C1203.2 20.7596 1200.29 19.4342 1197.08 19.4342C1191.79 19.4342 1187.33 23.0129 1185.95 27.8838C1184.52 27.6187 1183.04 27.453 1181.52 27.453C1168.79 27.453 1158.48 37.7913 1158.48 50.5485C1158.48 52.2384 1158.68 53.8952 1159.01 55.4857C1158.38 55.3531 1157.72 55.2868 1157.06 55.2868C1151.44 55.2868 1146.88 59.8595 1146.88 65.4926C1146.88 66.818 1147.15 68.0771 1147.58 69.2369C1147.35 69.2038 1147.11 69.2038 1146.88 69.2038C1143.64 69.2038 1141 71.8215 1141 75.1019C1141 78.3492 1143.61 81 1146.88 81C1150.12 81 1248.08 81 1251.12 81C1254.36 81 1257 78.3823 1257 75.1019C1257.03 73.3126 1256.27 71.7552 1255.08 70.6617Z" fill="#E7F7FF"/>
</g>
<g filter="url(#filter6_ii_411_3150)">
<path fill-rule="evenodd" clip-rule="evenodd" d="M1089.66 433.734C1088.69 434.341 1087.52 434.672 1086.3 434.672C1082.79 434.672 1079.97 431.942 1080 428.578C1080 425.213 1082.82 422.483 1086.3 422.483L1086.44 422.483C1086.36 421.904 1086.3 421.325 1086.3 420.719C1086.3 414.845 1091.23 410.102 1097.27 410.102C1097.37 410.102 1097.47 410.109 1097.57 410.116C1097.67 410.123 1097.77 410.13 1097.87 410.13C1098.22 403.539 1103.86 398.272 1110.79 398.272C1113.7 398.272 1116.4 399.237 1118.57 400.809C1121.02 394.494 1127.3 389.999 1134.68 389.999C1141.03 389.999 1146.56 393.309 1149.55 398.249C1150.24 397.994 1150.97 397.855 1151.75 397.855C1153.05 397.855 1154.26 398.251 1155.26 398.928C1157.75 397.178 1160.81 396.149 1164.13 396.149C1172.48 396.149 1179.24 402.684 1179.24 410.764L1179.24 410.874C1180.41 410.212 1181.78 409.826 1183.23 409.826C1187.54 409.826 1191.04 413.218 1191.04 417.382C1191.04 418.071 1190.93 418.761 1190.76 419.395L1191.04 419.395C1195.52 419.395 1199.14 422.897 1199.14 427.226C1199.14 431.556 1195.52 435.058 1191.04 435.058C1188.68 435.058 1186.54 434.065 1185.06 432.493C1183.49 433.817 1181.52 434.727 1179.33 434.975C1179.44 435.775 1179.53 436.602 1179.53 437.429C1179.53 445.647 1172.63 452.32 1164.13 452.32C1160.42 452.32 1157.03 451.052 1154.38 448.956C1151.02 451.079 1147 452.32 1142.66 452.32C1135.39 452.32 1128.98 448.846 1125.1 443.524C1122.79 444.627 1120.23 445.233 1117.49 445.233C1110.3 445.233 1104.15 440.959 1101.58 434.92C1100.58 437.043 1098.39 438.505 1095.82 438.505C1092.8 438.505 1090.29 436.464 1089.66 433.734Z" fill="#ECF9FF"/>
</g>
<circle cx="1188.67" cy="440.537" r="3.66594" transform="rotate(-180 1188.67 440.537)" fill="#D2F1FC"/>
<g filter="url(#filter7_ii_411_3150)">
<path d="M805.066 57.5074C805.899 56.0277 806.399 54.2789 806.399 52.4629C806.399 46.8467 801.899 42.3066 796.332 42.3066C795.332 42.3066 794.366 42.4412 793.466 42.7438C793.599 41.8358 793.666 40.9278 793.666 39.9862C793.666 32.0831 789.166 25.2226 782.633 21.8932C783.533 19.9426 784.032 17.723 784.032 15.4362C784.032 6.92779 777.199 0 768.733 0C762.566 0 757.266 3.66568 754.833 8.97923C752.733 6.86053 749.799 5.51533 746.566 5.51533C741.233 5.51533 736.733 9.14738 735.333 14.091C733.9 13.822 732.4 13.6538 730.866 13.6538C718.033 13.6538 707.633 24.1464 707.633 37.094C707.633 38.8091 707.833 40.4906 708.166 42.1048C707.533 41.9703 706.867 41.9031 706.2 41.9031C700.533 41.9031 695.933 46.544 695.933 52.2611C695.933 53.6063 696.2 54.8843 696.633 56.0613C696.4 56.0277 696.167 56.0277 695.933 56.0277C692.667 56.0277 690 58.6845 690 62.0139C690 65.3096 692.633 68 695.933 68C699.2 68 797.999 68 801.066 68C804.332 68 806.999 65.3432 806.999 62.0139C807.032 60.1978 806.266 58.6172 805.066 57.5074Z" fill="#E7F7FF"/>
</g>
</g>
<defs>
<filter id="filter0_ii_411_3150" x="442" y="430.527" width="175" height="121.012" filterUnits="userSpaceOnUse" color-interpolation-filters="sRGB">
<feFlood flood-opacity="0" result="BackgroundImageFix"/>
<feBlend mode="normal" in="SourceGraphic" in2="BackgroundImageFix" result="shape"/>
<feColorMatrix in="SourceAlpha" type="matrix" values="0 0 0 0 0 0 0 0 0 0 0 0 0 0 0 0 0 0 127 0" result="hardAlpha"/>
<feOffset dy="-29.4731"/>
<feGaussianBlur stdDeviation="32.558"/>
<feComposite in2="hardAlpha" operator="arithmetic" k2="-1" k3="1"/>
<feColorMatrix type="matrix" values="0 0 0 0 0.14902 0 0 0 0 0.647059 0 0 0 0 0.901961 0 0 0 1 0"/>
<feBlend mode="normal" in2="shape" result="effect1_innerShadow_411_3150"/>
<feColorMatrix in="SourceAlpha" type="matrix" values="0 0 0 0 0 0 0 0 0 0 0 0 0 0 0 0 0 0 127 0" result="hardAlpha"/>
<feOffset dy="-14.7366"/>
<feGaussianBlur stdDeviation="24.4185"/>
<feComposite in2="hardAlpha" operator="arithmetic" k2="-1" k3="1"/>
<feColorMatrix type="matrix" values="0 0 0 0 0.820833 0 0 0 0 0.9355 0 0 0 0 1 0 0 0 1 0"/>
<feBlend mode="normal" in2="effect1_innerShadow_411_3150" result="effect2_innerShadow_411_3150"/>
</filter>
<filter id="filter1_ii_411_3150" x="744.998" y="467.526" width="119.143" height="91.7939" filterUnits="userSpaceOnUse" color-interpolation-filters="sRGB">
<feFlood flood-opacity="0" result="BackgroundImageFix"/>
<feBlend mode="normal" in="SourceGraphic" in2="BackgroundImageFix" result="shape"/>
<feColorMatrix in="SourceAlpha" type="matrix" values="0 0 0 0 0 0 0 0 0 0 0 0 0 0 0 0 0 0 127 0" result="hardAlpha"/>
<feOffset dy="-29.4731"/>
<feGaussianBlur stdDeviation="32.558"/>
<feComposite in2="hardAlpha" operator="arithmetic" k2="-1" k3="1"/>
<feColorMatrix type="matrix" values="0 0 0 0 0.14902 0 0 0 0 0.647059 0 0 0 0 0.901961 0 0 0 1 0"/>
<feBlend mode="normal" in2="shape" result="effect1_innerShadow_411_3150"/>
<feColorMatrix in="SourceAlpha" type="matrix" values="0 0 0 0 0 0 0 0 0 0 0 0 0 0 0 0 0 0 127 0" result="hardAlpha"/>
<feOffset dy="-14.7366"/>
<feGaussianBlur stdDeviation="24.4185"/>
<feComposite in2="hardAlpha" operator="arithmetic" k2="-1" k3="1"/>
<feColorMatrix type="matrix" values="0 0 0 0 0.820833 0 0 0 0 0.9355 0 0 0 0 1 0 0 0 1 0"/>
<feBlend mode="normal" in2="effect1_innerShadow_411_3150" result="effect2_innerShadow_411_3150"/>
</filter>
<filter id="filter2_ii_411_3150" x="84.9976" y="-15.4736" width="119.143" height="91.7939" filterUnits="userSpaceOnUse" color-interpolation-filters="sRGB">
<feFlood flood-opacity="0" result="BackgroundImageFix"/>
<feBlend mode="normal" in="SourceGraphic" in2="BackgroundImageFix" result="shape"/>
<feColorMatrix in="SourceAlpha" type="matrix" values="0 0 0 0 0 0 0 0 0 0 0 0 0 0 0 0 0 0 127 0" result="hardAlpha"/>
<feOffset dy="-29.4731"/>
<feGaussianBlur stdDeviation="32.558"/>
<feComposite in2="hardAlpha" operator="arithmetic" k2="-1" k3="1"/>
<feColorMatrix type="matrix" values="0 0 0 0 0.14902 0 0 0 0 0.647059 0 0 0 0 0.901961 0 0 0 1 0"/>
<feBlend mode="normal" in2="shape" result="effect1_innerShadow_411_3150"/>
<feColorMatrix in="SourceAlpha" type="matrix" values="0 0 0 0 0 0 0 0 0 0 0 0 0 0 0 0 0 0 127 0" result="hardAlpha"/>
<feOffset dy="-14.7366"/>
<feGaussianBlur stdDeviation="24.4185"/>
<feComposite in2="hardAlpha" operator="arithmetic" k2="-1" k3="1"/>
<feColorMatrix type="matrix" values="0 0 0 0 0.820833 0 0 0 0 0.9355 0 0 0 0 1 0 0 0 1 0"/>
<feBlend mode="normal" in2="effect1_innerShadow_411_3150" result="effect2_innerShadow_411_3150"/>
</filter>
<filter id="filter3_ii_411_3150" x="398" y="66.9475" width="116" height="76.0525" filterUnits="userSpaceOnUse" color-interpolation-filters="sRGB">
<feFlood flood-opacity="0" result="BackgroundImageFix"/>
<feBlend mode="normal" in="SourceGraphic" in2="BackgroundImageFix" result="shape"/>
<feColorMatrix in="SourceAlpha" type="matrix" values="0 0 0 0 0 0 0 0 0 0 0 0 0 0 0 0 0 0 127 0" result="hardAlpha"/>
<feOffset dy="-8"/>
<feGaussianBlur stdDeviation="20"/>
<feComposite in2="hardAlpha" operator="arithmetic" k2="-1" k3="1"/>
<feColorMatrix type="matrix" values="0 0 0 0 0.14902 0 0 0 0 0.647059 0 0 0 0 0.901961 0 0 0 1 0"/>
<feBlend mode="normal" in2="shape" result="effect1_innerShadow_411_3150"/>
<feColorMatrix in="SourceAlpha" type="matrix" values="0 0 0 0 0 0 0 0 0 0 0 0 0 0 0 0 0 0 127 0" result="hardAlpha"/>
<feOffset dy="-9.05249"/>
<feGaussianBlur stdDeviation="15"/>
<feComposite in2="hardAlpha" operator="arithmetic" k2="-1" k3="1"/>
<feColorMatrix type="matrix" values="0 0 0 0 0.820833 0 0 0 0 0.9355 0 0 0 0 1 0 0 0 1 0"/>
<feBlend mode="normal" in2="effect1_innerShadow_411_3150" result="effect2_innerShadow_411_3150"/>
</filter>
<filter id="filter4_ii_411_3150" x="58" y="405.948" width="116" height="76.0525" filterUnits="userSpaceOnUse" color-interpolation-filters="sRGB">
<feFlood flood-opacity="0" result="BackgroundImageFix"/>
<feBlend mode="normal" in="SourceGraphic" in2="BackgroundImageFix" result="shape"/>
<feColorMatrix in="SourceAlpha" type="matrix" values="0 0 0 0 0 0 0 0 0 0 0 0 0 0 0 0 0 0 127 0" result="hardAlpha"/>
<feOffset dy="-8"/>
<feGaussianBlur stdDeviation="20"/>
<feComposite in2="hardAlpha" operator="arithmetic" k2="-1" k3="1"/>
<feColorMatrix type="matrix" values="0 0 0 0 0.14902 0 0 0 0 0.647059 0 0 0 0 0.901961 0 0 0 1 0"/>
<feBlend mode="normal" in2="shape" result="effect1_innerShadow_411_3150"/>
<feColorMatrix in="SourceAlpha" type="matrix" values="0 0 0 0 0 0 0 0 0 0 0 0 0 0 0 0 0 0 127 0" result="hardAlpha"/>
<feOffset dy="-9.05249"/>
<feGaussianBlur stdDeviation="15"/>
<feComposite in2="hardAlpha" operator="arithmetic" k2="-1" k3="1"/>
<feColorMatrix type="matrix" values="0 0 0 0 0.820833 0 0 0 0 0.9355 0 0 0 0 1 0 0 0 1 0"/>
<feBlend mode="normal" in2="effect1_innerShadow_411_3150" result="effect2_innerShadow_411_3150"/>
</filter>
<filter id="filter5_ii_411_3150" x="1141" y="4.94751" width="116" height="76.0525" filterUnits="userSpaceOnUse" color-interpolation-filters="sRGB">
<feFlood flood-opacity="0" result="BackgroundImageFix"/>
<feBlend mode="normal" in="SourceGraphic" in2="BackgroundImageFix" result="shape"/>
<feColorMatrix in="SourceAlpha" type="matrix" values="0 0 0 0 0 0 0 0 0 0 0 0 0 0 0 0 0 0 127 0" result="hardAlpha"/>
<feOffset dy="-8"/>
<feGaussianBlur stdDeviation="20"/>
<feComposite in2="hardAlpha" operator="arithmetic" k2="-1" k3="1"/>
<feColorMatrix type="matrix" values="0 0 0 0 0.14902 0 0 0 0 0.647059 0 0 0 0 0.901961 0 0 0 1 0"/>
<feBlend mode="normal" in2="shape" result="effect1_innerShadow_411_3150"/>
<feColorMatrix in="SourceAlpha" type="matrix" values="0 0 0 0 0 0 0 0 0 0 0 0 0 0 0 0 0 0 127 0" result="hardAlpha"/>
<feOffset dy="-9.05249"/>
<feGaussianBlur stdDeviation="15"/>
<feComposite in2="hardAlpha" operator="arithmetic" k2="-1" k3="1"/>
<feColorMatrix type="matrix" values="0 0 0 0 0.820833 0 0 0 0 0.9355 0 0 0 0 1 0 0 0 1 0"/>
<feBlend mode="normal" in2="effect1_innerShadow_411_3150" result="effect2_innerShadow_411_3150"/>
</filter>
<filter id="filter6_ii_411_3150" x="1080" y="360.526" width="119.143" height="91.7939" filterUnits="userSpaceOnUse" color-interpolation-filters="sRGB">
<feFlood flood-opacity="0" result="BackgroundImageFix"/>
<feBlend mode="normal" in="SourceGraphic" in2="BackgroundImageFix" result="shape"/>
<feColorMatrix in="SourceAlpha" type="matrix" values="0 0 0 0 0 0 0 0 0 0 0 0 0 0 0 0 0 0 127 0" result="hardAlpha"/>
<feOffset dy="-29.4731"/>
<feGaussianBlur stdDeviation="32.558"/>
<feComposite in2="hardAlpha" operator="arithmetic" k2="-1" k3="1"/>
<feColorMatrix type="matrix" values="0 0 0 0 0.14902 0 0 0 0 0.647059 0 0 0 0 0.901961 0 0 0 1 0"/>
<feBlend mode="normal" in2="shape" result="effect1_innerShadow_411_3150"/>
<feColorMatrix in="SourceAlpha" type="matrix" values="0 0 0 0 0 0 0 0 0 0 0 0 0 0 0 0 0 0 127 0" result="hardAlpha"/>
<feOffset dy="-14.7366"/>
<feGaussianBlur stdDeviation="24.4185"/>
<feComposite in2="hardAlpha" operator="arithmetic" k2="-1" k3="1"/>
<feColorMatrix type="matrix" values="0 0 0 0 0.820833 0 0 0 0 0.9355 0 0 0 0 1 0 0 0 1 0"/>
<feBlend mode="normal" in2="effect1_innerShadow_411_3150" result="effect2_innerShadow_411_3150"/>
</filter>
<filter id="filter7_ii_411_3150" x="690" y="-9.05249" width="117" height="77.0525" filterUnits="userSpaceOnUse" color-interpolation-filters="sRGB">
<feFlood flood-opacity="0" result="BackgroundImageFix"/>
<feBlend mode="normal" in="SourceGraphic" in2="BackgroundImageFix" result="shape"/>
<feColorMatrix in="SourceAlpha" type="matrix" values="0 0 0 0 0 0 0 0 0 0 0 0 0 0 0 0 0 0 127 0" result="hardAlpha"/>
<feOffset dy="-8"/>
<feGaussianBlur stdDeviation="20"/>
<feComposite in2="hardAlpha" operator="arithmetic" k2="-1" k3="1"/>
<feColorMatrix type="matrix" values="0 0 0 0 0.14902 0 0 0 0 0.647059 0 0 0 0 0.901961 0 0 0 1 0"/>
<feBlend mode="normal" in2="shape" result="effect1_innerShadow_411_3150"/>
<feColorMatrix in="SourceAlpha" type="matrix" values="0 0 0 0 0 0 0 0 0 0 0 0 0 0 0 0 0 0 127 0" result="hardAlpha"/>
<feOffset dy="-9.05249"/>
<feGaussianBlur stdDeviation="15"/>
<feComposite in2="hardAlpha" operator="arithmetic" k2="-1" k3="1"/>
<feColorMatrix type="matrix" values="0 0 0 0 0.820833 0 0 0 0 0.9355 0 0 0 0 1 0 0 0 1 0"/>
<feBlend mode="normal" in2="effect1_innerShadow_411_3150" result="effect2_innerShadow_411_3150"/>
</filter>
<clipPath id="clip0_411_3150">
<rect width="1257" height="555" fill="white"/>
</clipPath>
</defs>
</svg>
