<svg width="23" height="22" viewBox="0 0 23 22" fill="none" xmlns="http://www.w3.org/2000/svg">
<path d="M15.1374 11.8183V15.6365C15.1374 18.8183 13.8647 20.091 10.6829 20.091H6.8647C3.68288 20.091 2.41016 18.8183 2.41016 15.6365V11.8183C2.41016 8.6365 3.68288 7.36377 6.8647 7.36377H10.6829C13.8647 7.36377 15.1374 8.6365 15.1374 11.8183Z" stroke="#FF7547" stroke-width="1.36364" stroke-linecap="round" stroke-linejoin="round"/>
<path d="M20.5925 6.36373V10.1819C20.5925 13.3637 19.3198 14.6365 16.138 14.6365H15.138V11.8183C15.138 8.63645 13.8652 7.36373 10.6834 7.36373H7.86523V6.36373C7.86523 3.18191 9.13796 1.90918 12.3198 1.90918H16.138C19.3198 1.90918 20.5925 3.18191 20.5925 6.36373Z" stroke="#FF7547" stroke-width="1.36364" stroke-linecap="round" stroke-linejoin="round"/>
</svg>
