<svg width="35" height="35" viewBox="0 0 35 35" fill="none" xmlns="http://www.w3.org/2000/svg">
<g clip-path="url(#clip0_298_7623)">
<path d="M28.8863 18.4219H24.2917V14.7043C24.2917 14.6113 24.3287 14.522 24.3945 14.4563C24.4603 14.3905 24.5495 14.3535 24.6425 14.3535H28.5355C28.6285 14.3535 28.7177 14.3905 28.7835 14.4563C28.8493 14.522 28.8863 14.6113 28.8863 14.7043L28.8863 18.4219Z" fill="#FF9299"/>
<path d="M26.2145 14.3535H24.6425C24.5495 14.3535 24.4603 14.3905 24.3945 14.4563C24.3287 14.522 24.2917 14.6113 24.2917 14.7043V18.4219H25.8637V14.7043C25.8637 14.6582 25.8728 14.6126 25.8904 14.57C25.908 14.5275 25.9339 14.4888 25.9664 14.4562C25.999 14.4237 26.0377 14.3978 26.0802 14.3802C26.1228 14.3626 26.1684 14.3535 26.2145 14.3535Z" fill="#FB7C83"/>
<path d="M19.0839 6.104H21.2348V28.8036H19.0839V6.104Z" fill="#676567"/>
<path d="M10.8224 6.19986C10.6995 6.07471 10.57 5.95627 10.4344 5.84506L10.1269 5.59325C9.91526 5.41902 9.61054 5.41902 9.39823 5.59184L9.08858 5.84506C8.51149 6.31604 8.0464 6.90951 7.72701 7.58244C7.40762 8.25538 7.24193 8.99094 7.24194 9.73583V10.7523L7.93637 12.6717L11.5413 10.8997L10.8224 6.19986Z" fill="#FF727C"/>
<path d="M12.2705 9.7289V16.9885H7.24194V10.7531L9.27268 9.4658C9.82794 9.11371 10.2271 8.56211 10.3879 7.92458L10.8224 6.20068C11.7504 7.14048 12.2707 8.40813 12.2705 9.7289Z" fill="#FB7C83"/>
<path d="M13.0119 15.3556V22.259H6.51416V15.3556C6.51416 14.9324 6.85767 14.5889 7.28089 14.5889H12.2452C12.6691 14.5889 13.0119 14.9324 13.0119 15.3556Z" fill="#676567"/>
<path d="M9.13733 14.5889H7.28089C6.85767 14.5889 6.51416 14.9324 6.51416 15.3556V22.259H8.37067V15.3556C8.3706 14.9324 8.71411 14.5889 9.13733 14.5889Z" fill="#605860"/>
<path d="M14.1779 23.5061L14.2141 22.7877C14.2458 22.1549 13.7415 21.6245 13.1081 21.6245H6.41846C5.78505 21.6245 5.28071 22.1549 5.31246 22.7877L5.34857 23.5061H5.81242V24.5642H5.40175L5.87385 33.9479C5.90348 34.5368 6.39018 34.9996 6.97986 34.9996H12.5466C13.137 34.9996 13.6229 34.5368 13.6526 33.9479L14.1247 24.5642H13.8637V23.5061H14.1779Z" fill="#605860"/>
<path d="M8.11824 33.9479L7.55677 22.7877C7.52503 22.1549 8.02936 21.6245 8.66278 21.6245H6.41846C5.78505 21.6245 5.28071 22.1549 5.31246 22.7877L5.34857 23.5061H5.81242V24.5642H5.40175L5.87385 33.9479C5.90348 34.5368 6.39018 34.9996 6.97986 34.9996H9.22417C8.63456 34.9996 8.14786 34.5368 8.11824 33.9479Z" fill="#665A66"/>
<path d="M5.34888 23.5087L5.40206 24.5654H14.125L14.1781 23.5094C14.1648 23.5084 14.1515 23.5073 14.138 23.5073H5.37554C5.36658 23.5073 5.35776 23.5082 5.34888 23.5087Z" fill="#FFF5C6"/>
<path d="M23.487 25.3641V33.9286C23.487 34.5197 23.008 34.9993 22.4169 34.9993H17.9019C17.3108 34.9993 16.8312 34.5197 16.8312 33.9286V25.3641C16.8312 25.1264 17.0244 24.9331 17.2622 24.9331H23.0567C23.2944 24.9331 23.487 25.1264 23.487 25.3641Z" fill="#605860"/>
<path d="M18.5071 33.9286V25.3641C18.5071 25.1264 18.7004 24.9331 18.9381 24.9331H17.2622C17.0244 24.9331 16.8312 25.1264 16.8312 25.3641V33.9286C16.8312 34.5197 17.3108 34.9993 17.9019 34.9993H19.5779C18.9868 34.9993 18.5071 34.5197 18.5071 33.9286Z" fill="#665A66"/>
<path d="M29.6898 18.0757V33.8046C29.6898 34.4648 29.1544 35.0002 28.4935 35.0002L24.5463 34.9585C23.9602 34.9522 23.4883 34.4754 23.4883 33.8892V18.0757C23.4883 17.7597 23.7443 17.5044 24.0596 17.5044H29.1185C29.4338 17.5044 29.6898 17.7597 29.6898 18.0757Z" fill="#FB7C83"/>
<path d="M26.6325 34.9588C26.0463 34.9524 25.5744 34.4756 25.5744 33.8894V18.0759C25.5744 17.7599 25.8305 17.5046 26.1458 17.5046H24.0579C23.7426 17.5046 23.4866 17.7599 23.4866 18.0759V33.8894C23.4866 34.4756 23.9585 34.9524 24.5446 34.9588L28.4918 35.0004C28.5641 35.0004 28.6346 34.9929 28.7034 34.9805L26.6325 34.9588ZM21.6671 5.56982H18.7765L18.2972 6.20049V7.31425C18.2972 8.057 18.8989 8.65867 19.6417 8.65867H20.6764C21.4192 8.65867 22.0208 8.057 22.0208 7.31425V6.20049L21.6671 5.56982Z" fill="#FF727C"/>
<path d="M22.0208 3.14661V6.20012H18.2972V3.14661C18.2972 2.14289 18.7063 1.18218 19.4308 0.486699L19.7799 0.152358C19.9915 -0.050786 20.3259 -0.050786 20.5375 0.152358L20.8866 0.486699C21.2451 0.830785 21.5304 1.24377 21.7253 1.70086C21.9202 2.15794 22.0207 2.64971 22.0208 3.14661Z" fill="#FF9299"/>
<path d="M7.59312 23.5073H5.37554C5.36658 23.5073 5.35776 23.5082 5.34888 23.5087L5.40206 24.5654H7.64638L7.59312 23.5073Z" fill="#FEF0AE"/>
</g>
<defs>
<clipPath id="clip0_298_7623">
<rect width="35" height="35" fill="white"/>
</clipPath>
</defs>
</svg>
