<svg width="101" height="19" viewBox="0 0 101 19" fill="none" xmlns="http://www.w3.org/2000/svg">
<path d="M81.1768 0.150391C77.286 0.150391 73.3952 0.150391 69.5044 0.150391C69.3548 1.04827 69.3548 2.09579 69.5044 2.99367C72.0484 2.99367 74.5924 2.99367 76.9867 2.99367L69.0555 15.7136C68.9058 16.4619 68.9058 17.2101 69.0555 17.9583C73.0959 17.9583 77.1364 17.9583 81.3265 17.9583C81.4761 17.0604 81.4761 16.0129 81.3265 15.115C78.6328 15.115 75.9392 15.115 73.2456 15.115L81.1768 2.39509C81.3265 1.64686 81.3265 0.898623 81.1768 0.150391Z" fill="white"/>
<path d="M53.9393 5.38502L60.9727 17.9553C62.0202 18.105 63.0677 18.105 64.1152 17.9553C64.1152 12.1191 64.1152 6.13325 64.1152 0.297038C63.0677 0.147391 62.0202 0.147391 60.9727 0.297038C60.9727 3.88855 60.9727 9.27583 60.9727 12.7177L53.9393 0.147391C52.8917 -0.00225536 51.8442 -0.00225536 50.7967 0.147391C50.7967 5.9836 50.7967 11.9695 50.7967 17.8057C51.8442 17.9553 52.8917 17.9553 53.9393 17.8057C53.9393 14.2142 53.9393 8.82689 53.9393 5.38502Z" fill="white"/>
<path d="M17.2795 17.9553H19.2249H25.0612H27.9044C28.0541 16.9078 28.0541 15.8603 27.9044 14.8127H20.4221V7.48007V4.63679V0.147391C19.3746 -0.00225537 18.3271 -0.00225537 17.2795 0.147391V4.63679V7.48007V17.9553Z" fill="white"/>
<path d="M9.04966 15.115H5.3085H3.96168V10.3264H10.3965C10.5461 9.42847 10.5461 8.53059 10.3965 7.63271H3.96168V2.84403H5.3085H9.79789H11.5936C11.7433 1.94615 11.7433 1.04827 11.5936 0.150391H9.79789H5.3085H0.96875V6.58519L2.46521 9.12918L0.96875 11.3739V17.8087H5.3085H9.04966H11.7433C11.8929 16.9108 11.8929 16.0129 11.7433 15.115H9.04966Z" fill="#FF7745"/>
<path d="M100.033 17.5086C99.7339 16.6108 99.8835 16.91 99.5843 16.0122C98.0878 11.9717 95.9927 4.33975 94.4963 0.299293C94.3466 0.299293 94.0473 0.149646 93.8977 0.149646C93.4487 -5.57477e-08 92.9998 0 92.5509 0C92.1019 0 91.653 -5.57477e-08 91.204 0.149646C91.0544 0.149646 90.7551 0.299293 90.6055 0.299293C89.109 4.33975 87.014 11.9717 85.5175 16.0122C85.2182 16.91 85.3678 16.6108 85.0685 17.5086C86.1161 18.1072 87.3132 18.1072 88.3608 17.5086L89.4083 14.5157L92.5509 4.04045L95.8431 15.1143L96.741 17.5086C97.9381 18.1072 98.9857 18.1072 100.033 17.5086Z" fill="white"/>
<path d="M46.3099 17.5086C46.0106 16.6108 46.1602 16.91 45.8609 16.0122C44.3645 11.9717 42.2694 4.33975 40.7729 0.299293C40.6233 0.299293 40.324 0.149646 40.1744 0.149646C39.7254 -5.57477e-08 39.2765 0 38.8275 0C38.3786 0 37.9297 -5.57477e-08 37.4807 0.149646C37.3311 0.149646 37.0318 0.299293 36.8821 0.299293C35.3857 4.33975 33.2906 11.9717 31.7942 16.0122C31.4949 16.91 31.6445 16.6108 31.3452 17.5086C32.3927 18.1072 33.5899 18.1072 34.6374 17.5086L35.685 14.5157L38.8275 4.04045L42.1198 15.1143L43.0176 17.5086C44.2148 18.1072 45.2623 18.1072 46.3099 17.5086Z" fill="white"/>
</svg>
