<svg width="34" height="34" viewBox="0 0 34 34" fill="none" xmlns="http://www.w3.org/2000/svg">
<rect width="33.4545" height="33.4545" rx="11.5909" fill="#F26C36"/>
<path d="M13.1399 23.4309L13.0226 24.1716H13.0226L13.1399 23.4309ZM10.0227 20.3137L10.7635 20.1964L10.0227 20.3137ZM23.4304 20.3137L24.1712 20.431V20.431L23.4304 20.3137ZM20.3132 23.4309L20.4305 24.1716H20.4305L20.3132 23.4309ZM23.3265 15.5266C23.0777 15.1954 22.6076 15.1286 22.2764 15.3774C21.9452 15.6261 21.8784 16.0963 22.1272 16.4275L23.3265 15.5266ZM11.326 16.4275C11.5747 16.0963 11.5079 15.6261 11.1767 15.3774C10.8455 15.1286 10.3754 15.1954 10.1266 15.5266L11.326 16.4275ZM15.9766 20.4771C15.9766 20.8913 16.3124 21.2271 16.7266 21.2271C17.1408 21.2271 17.4766 20.8913 17.4766 20.4771H15.9766ZM13.1389 12.5111C12.8815 12.8356 12.936 13.3074 13.2606 13.5647C13.5852 13.8221 14.0569 13.7676 14.3142 13.443L13.1389 12.5111ZM14.7749 11.6548L14.1873 11.1889V11.1889L14.7749 11.6548ZM18.6782 11.6548L19.2659 11.1889L18.6782 11.6548ZM19.1389 13.443C19.3962 13.7676 19.868 13.8221 20.1925 13.5647C20.5171 13.3074 20.5716 12.8357 20.3142 12.5111L19.1389 13.443ZM16.5386 9.99197L16.4206 9.25131L16.4206 9.25131L16.5386 9.99197ZM16.9146 9.99197L17.0326 9.25131L17.0326 9.25131L16.9146 9.99197ZM22.7266 18.227V18.977H24.2266V18.227H22.7266ZM18.9766 22.727H14.4766V24.227H18.9766V22.727ZM10.7266 18.977V18.227H9.22656V18.977H10.7266ZM14.4766 22.727C13.7511 22.727 13.4758 22.7247 13.2573 22.6901L13.0226 24.1716C13.3871 24.2294 13.8085 24.227 14.4766 24.227V22.727ZM9.22656 18.977C9.22656 19.6451 9.22423 20.0665 9.28197 20.431L10.7635 20.1964C10.7289 19.9778 10.7266 19.7025 10.7266 18.977H9.22656ZM13.2573 22.6901C11.9736 22.4868 10.9668 21.48 10.7635 20.1964L9.28197 20.431C9.58694 22.3565 11.0971 23.8667 13.0226 24.1716L13.2573 22.6901ZM22.7266 18.977C22.7266 19.7025 22.7242 19.9779 22.6896 20.1964L24.1712 20.431C24.2289 20.0665 24.2266 19.6451 24.2266 18.977H22.7266ZM18.9766 24.227C19.6447 24.227 20.066 24.2294 20.4305 24.1716L20.1959 22.6901C19.9774 22.7247 19.702 22.727 18.9766 22.727V24.227ZM22.6896 20.1964C22.4863 21.48 21.4795 22.4868 20.1959 22.6901L20.4305 24.1716C22.356 23.8667 23.8662 22.3565 24.1712 20.431L22.6896 20.1964ZM24.2266 18.227C24.2266 17.2149 23.8915 16.2788 23.3265 15.5266L22.1272 16.4275C22.5037 16.9288 22.7266 17.5508 22.7266 18.227H24.2266ZM10.7266 18.227C10.7266 17.5508 10.9494 16.9288 11.326 16.4275L10.1266 15.5266C9.56164 16.2788 9.22656 17.2149 9.22656 18.227H10.7266ZM17.4766 20.4771V10.7271H15.9766V20.4771H17.4766ZM14.3142 13.443L15.3626 12.1208L14.1873 11.1889L13.1389 12.5111L14.3142 13.443ZM18.0905 12.1208L19.1389 13.443L20.3142 12.5111L19.2659 11.1889L18.0905 12.1208ZM15.3626 12.1208C15.792 11.5792 16.075 11.2242 16.3106 10.9877C16.5428 10.7546 16.6353 10.736 16.6566 10.7326L16.4206 9.25131C15.9323 9.3291 15.5611 9.61469 15.2479 9.92911C14.938 10.2402 14.5939 10.676 14.1873 11.1889L15.3626 12.1208ZM19.2659 11.1889C18.8592 10.676 18.5151 10.2402 18.2053 9.92911C17.8921 9.61469 17.5208 9.3291 17.0326 9.25131L16.7966 10.7326C16.8178 10.736 16.9104 10.7546 17.1426 10.9877C17.3781 11.2242 17.6611 11.5792 18.0905 12.1208L19.2659 11.1889ZM16.6566 10.7326C16.6801 10.7289 16.7034 10.7271 16.7266 10.7271V9.22705C16.6241 9.22705 16.5219 9.23517 16.4206 9.25131L16.6566 10.7326ZM16.7266 10.7271C16.7497 10.7271 16.773 10.7289 16.7966 10.7326L17.0326 9.25131C16.9313 9.23517 16.829 9.22705 16.7266 9.22705V10.7271ZM17.4766 10.7271V9.97705H15.9766V10.7271H17.4766Z" fill="white"/>
</svg>
