<svg width="20" height="20" viewBox="0 0 20 20" fill="none" xmlns="http://www.w3.org/2000/svg">
<g clip-path="url(#clip0_408_2737)">
<path d="M13.3333 10.75V14.25C13.3333 17.1667 12.1667 18.3333 9.24999 18.3333H5.74999C2.83332 18.3333 1.66666 17.1667 1.66666 14.25V10.75C1.66666 7.83333 2.83332 6.66666 5.74999 6.66666H9.24999C12.1667 6.66666 13.3333 7.83333 13.3333 10.75Z" stroke="#FF7745" stroke-width="1.5" stroke-linecap="round" stroke-linejoin="round"/>
<path d="M18.3333 5.75V9.25C18.3333 12.1667 17.1667 13.3333 14.25 13.3333H13.3333V10.75C13.3333 7.83333 12.1667 6.66666 9.24999 6.66666H6.66666V5.75C6.66666 2.83333 7.83332 1.66666 10.75 1.66666H14.25C17.1667 1.66666 18.3333 2.83333 18.3333 5.75Z" stroke="#FF7745" stroke-width="1.5" stroke-linecap="round" stroke-linejoin="round"/>
</g>
<defs>
<clipPath id="clip0_408_2737">
<rect width="20" height="20" fill="white"/>
</clipPath>
</defs>
</svg>
