<svg width="32" height="32" viewBox="0 0 32 32" fill="none" xmlns="http://www.w3.org/2000/svg">
<rect width="32" height="32" rx="4" fill="#FFF1F0"/>
<path d="M21.431 16.6496L22.1738 16.753L21.431 16.6496ZM21.2124 18.2204L21.9552 18.3238L21.2124 18.2204ZM10.7876 18.2204L11.5305 18.1171L10.7876 18.2204ZM10.569 16.6496L9.82616 16.753L10.569 16.6496ZM13.653 24.114L13.3615 24.805L13.653 24.114ZM11.3959 21.4669L12.0999 21.2083L11.3959 21.4669ZM20.6041 21.4669L21.3081 21.7256H21.3081L20.6041 21.4669ZM18.347 24.114L18.0554 23.423L18.347 24.114ZM10.9133 13.4291C10.8741 13.0167 10.5081 12.7142 10.0957 12.7534C9.68337 12.7925 9.38085 13.1586 9.42003 13.5709L10.9133 13.4291ZM22.58 13.5709C22.6192 13.1586 22.3166 12.7925 21.9043 12.7534C21.4919 12.7142 21.1259 13.0167 21.0867 13.4291L22.58 13.5709ZM22.6667 12.5833C23.0809 12.5833 23.4167 12.2475 23.4167 11.8333C23.4167 11.4191 23.0809 11.0833 22.6667 11.0833V12.5833ZM9.33334 11.0833C8.91912 11.0833 8.58334 11.4191 8.58334 11.8333C8.58334 12.2475 8.91912 12.5833 9.33334 12.5833V11.0833ZM13.5833 21C13.5833 21.4142 13.9191 21.75 14.3333 21.75C14.7475 21.75 15.0833 21.4142 15.0833 21H13.5833ZM15.0833 14.3333C15.0833 13.9191 14.7475 13.5833 14.3333 13.5833C13.9191 13.5833 13.5833 13.9191 13.5833 14.3333H15.0833ZM16.9167 21C16.9167 21.4142 17.2525 21.75 17.6667 21.75C18.0809 21.75 18.4167 21.4142 18.4167 21H16.9167ZM18.4167 14.3333C18.4167 13.9191 18.0809 13.5833 17.6667 13.5833C17.2525 13.5833 16.9167 13.9191 16.9167 14.3333H18.4167ZM19.3333 11.8333V12.5833H20.0833V11.8333H19.3333ZM12.6667 11.8333H11.9167V12.5833H12.6667V11.8333ZM20.6882 16.5462L20.4695 18.1171L21.9552 18.3238L22.1738 16.753L20.6882 16.5462ZM11.5305 18.1171L11.3118 16.5462L9.82616 16.753L10.0448 18.3238L11.5305 18.1171ZM16 23.5833C14.7145 23.5833 14.2909 23.5691 13.9446 23.423L13.3615 24.805C14.0546 25.0975 14.8492 25.0833 16 25.0833V23.5833ZM10.0448 18.3238C10.277 19.9922 10.4053 20.9454 10.6919 21.7256L12.0999 21.2083C11.8828 20.6173 11.7735 19.8632 11.5305 18.1171L10.0448 18.3238ZM13.9446 23.423C13.2166 23.1158 12.5216 22.356 12.0999 21.2083L10.6919 21.7256C11.2123 23.142 12.1458 24.292 13.3615 24.805L13.9446 23.423ZM20.4695 18.1171C20.2265 19.8632 20.1172 20.6173 19.9001 21.2083L21.3081 21.7256C21.5947 20.9454 21.723 19.9922 21.9552 18.3238L20.4695 18.1171ZM16 25.0833C17.1508 25.0833 17.9454 25.0975 18.6386 24.805L18.0554 23.423C17.7091 23.5691 17.2855 23.5833 16 23.5833V25.0833ZM19.9001 21.2083C19.4784 22.356 18.7834 23.1158 18.0554 23.423L18.6386 24.805C19.8542 24.292 20.7877 23.142 21.3081 21.7256L19.9001 21.2083ZM11.3118 16.5462C11.1266 15.2151 10.9888 14.224 10.9133 13.4291L9.42003 13.5709C9.49937 14.406 9.64269 15.4346 9.82616 16.753L11.3118 16.5462ZM22.1738 16.753C22.3573 15.4346 22.5006 14.406 22.58 13.5709L21.0867 13.4291C21.0112 14.224 20.8734 15.2151 20.6882 16.5462L22.1738 16.753ZM22.6667 11.0833H9.33334V12.5833H22.6667V11.0833ZM15.0833 21V14.3333H13.5833V21H15.0833ZM18.4167 21V14.3333H16.9167V21H18.4167ZM18.5833 11V11.8333H20.0833V11H18.5833ZM19.3333 11.0833H12.6667V12.5833H19.3333V11.0833ZM13.4167 11.8333V11H11.9167V11.8333H13.4167ZM16 8.41666C17.4267 8.41666 18.5833 9.57326 18.5833 11H20.0833C20.0833 8.74483 18.2552 6.91666 16 6.91666V8.41666ZM16 6.91666C13.7448 6.91666 11.9167 8.74483 11.9167 11H13.4167C13.4167 9.57326 14.5733 8.41666 16 8.41666V6.91666Z" fill="#E50101"/>
</svg>
